<?xml version="1.0" encoding="UTF-8"?>
<svg width="44px" height="64px" viewBox="0 0 44 64" version="1.1" xmlns="http://www.w3.org/2000/svg" xmlns:xlink="http://www.w3.org/1999/xlink">
    <!-- Generator: Sketch 51.2 (57519) - http://www.bohemiancoding.com/sketch -->
    <title>Aztec g - c - db</title>
    <desc>Created with Sketch.</desc>
    <defs>
        <radialGradient cx="11.7527771%" cy="8.42423057%" fx="11.7527771%" fy="8.42423057%" r="168.217821%" gradientTransform="translate(0.117528,0.084242),scale(1.000000,0.681893),rotate(43.337956),translate(-0.117528,-0.084242)" id="radialGradient-1">
            <stop stop-color="#00D3E6" offset="0%"></stop>
            <stop stop-color="#01CEE5" offset="14.1%"></stop>
            <stop stop-color="#02C0E3" offset="30.5%"></stop>
            <stop stop-color="#05A9E0" offset="48%"></stop>
            <stop stop-color="#0A88DB" offset="66.3%"></stop>
            <stop stop-color="#0F5FD5" offset="85%"></stop>
            <stop stop-color="#1438CF" offset="100%"></stop>
        </radialGradient>
        <radialGradient cx="-21.8931505%" cy="78.0563165%" fx="-21.8931505%" fy="78.0563165%" r="165.077378%" gradientTransform="translate(-0.218932,0.780563),scale(1.000000,0.681893),rotate(-43.337956),translate(0.218932,-0.780563)" id="radialGradient-2">
            <stop stop-color="#7926AB" offset="0%"></stop>
            <stop stop-color="#7926AB" stop-opacity="0" offset="100%"></stop>
        </radialGradient>
    </defs>
    <g id="Web" stroke="none" stroke-width="1" fill="none" fill-rule="evenodd">
        <g id="Landing-Page" transform="translate(-938.000000, -1451.000000)" fill-rule="nonzero">
            <g id="Aztec-g---c---db" transform="translate(938.000000, 1450.000000)">
                <path d="M21.625,44.238 C30.076923,44.2421397 37.7543262,39.3149884 41.2712807,31.6295444 C44.7882352,23.9441004 43.4981558,14.9133178 37.97,8.52 L42.753,3.733 C43.3781863,3.10726138 43.3777386,2.09318634 42.752,1.468 C42.1262614,0.842813663 41.1121863,0.843261378 40.487,1.469 L35.7,6.256 C31.7920258,2.8645828 26.789351,1.00096657 21.615,1.009 L21.605,1.009 C9.72500026,1.09250805 0.139186861,10.7481732 0.141935084,22.6284661 C0.144683307,34.508759 9.73496289,44.1599883 21.615,44.238 L21.625,44.238 Z M3.2,22.631 C3.20825773,12.4662493 11.4422585,4.2259859 21.607,4.21 L21.615,4.21 C31.7315826,4.28232344 39.8951636,12.5026884 39.8973613,22.6195294 C39.899559,32.7363703 31.7395503,40.9602813 21.623,41.037 L21.615,41.037 C11.4529818,41.0254381 3.21652959,32.7930113 3.2,22.631 Z M43.238,42.577 C43.2297437,54.5082158 33.5652039,64.1812552 21.634,64.2 C20.7503444,64.2 20.034,63.4836556 20.034,62.6 C20.034,61.7163444 20.7503444,61 21.634,61 C31.796464,60.9812587 40.0268505,52.7414788 40.034,42.579 C40.034,42.1546536 40.2025709,41.7476874 40.5026292,41.4476292 C40.8026874,41.1475709 41.2096536,40.979 41.634,40.979 C42.0586927,40.9779379 42.4663839,41.1457654 42.7672501,41.4455061 C43.0681163,41.7452469 43.2374705,42.1523063 43.238,42.577 Z" id="Shape" fill="url(#radialGradient-1)"></path>
                <path d="M21.625,44.238 C30.076923,44.2421397 37.7543262,39.3149884 41.2712807,31.6295444 C44.7882352,23.9441004 43.4981558,14.9133178 37.97,8.52 L42.753,3.733 C43.3781863,3.10726138 43.3777386,2.09318634 42.752,1.468 C42.1262614,0.842813663 41.1121863,0.843261378 40.487,1.469 L35.7,6.256 C31.7920258,2.8645828 26.789351,1.00096657 21.615,1.009 L21.605,1.009 C9.72500026,1.09250805 0.139186861,10.7481732 0.141935084,22.6284661 C0.144683307,34.508759 9.73496289,44.1599883 21.615,44.238 L21.625,44.238 Z M3.2,22.631 C3.20825773,12.4662493 11.4422585,4.2259859 21.607,4.21 L21.615,4.21 C31.7315826,4.28232344 39.8951636,12.5026884 39.8973613,22.6195294 C39.899559,32.7363703 31.7395503,40.9602813 21.623,41.037 L21.615,41.037 C11.4529818,41.0254381 3.21652959,32.7930113 3.2,22.631 Z M43.238,42.577 C43.2297437,54.5082158 33.5652039,64.1812552 21.634,64.2 C20.7503444,64.2 20.034,63.4836556 20.034,62.6 C20.034,61.7163444 20.7503444,61 21.634,61 C31.796464,60.9812587 40.0268505,52.7414788 40.034,42.579 C40.034,42.1546536 40.2025709,41.7476874 40.5026292,41.4476292 C40.8026874,41.1475709 41.2096536,40.979 41.634,40.979 C42.0586927,40.9779379 42.4663839,41.1457654 42.7672501,41.4455061 C43.0681163,41.7452469 43.2374705,42.1523063 43.238,42.577 Z" id="Shape" fill="url(#radialGradient-2)"></path>
            </g>
        </g>
    </g>
</svg>